<svg xmlns="http://www.w3.org/2000/svg" width="550" height="350" viewBox="0 0 550 350"><style>.a{fill:#FFF;}.b{fill:#E30A17;}</style><path d="M275 0C394.7 0 435.1 32.6 466.2 48.5c28.2 14.4 59.4 29.6 62.1 70.8 3 45.1 1.1 92.1-11.4 111.4 -11.1 17.2-25.3 42.4-95.6 77 -70.2 34.6-146.6 33.4-146.4 33.2 0.2 0.2-76.1 1.4-146.4-33.2 -70.2-34.6-84.5-59.8-95.6-77 -12.4-19.3-14.4-66.3-11.4-111.4 2.8-41.2 34-56.4 62.2-70.8C114.9 32.6 155.3 0 275 0z" class="a"/><path d="M275 9c83.4 0 160.1 23.6 191.2 39.5 28.2 14.4 59.4 29.6 62.1 70.8 3 45.1 1.1 92.1-11.4 111.4 -11.1 17.2-25.3 42.4-95.6 77 -70.2 34.6-146.6 33.4-146.4 33.2 0.2 0.2-76.1 1.4-146.4-33.2 -70.2-34.6-84.5-59.8-95.6-77 -12.4-19.3-14.4-66.3-11.4-111.4 2.8-41.2 34-56.4 62.2-70.8C114.9 32.6 191.6 9 275 9" class="b"/><path d="M441.6 239.4c44.5-21.3 50.2-37 54.6-44.7 4.8-8.5 6.8-36.3 5.3-55.8 -1.3-17.2-3.9-28.6-27.7-39.4C449.2 88.5 358.5 75.3 275 75.3c-83.4 0-174.2 13.3-198.8 24.3 -23.8 10.7-26.4 22.2-27.7 39.4 -1.4 19.4 0.5 47.3 5.4 55.8 4.4 7.6 10 23.4 54.6 44.7 27.6 13.2 56 20.1 75.4 23.8 0.9 0.2 1.5 0.9 1.5 1.8v0.2l0 1.6c0 33.3 40.2 60.3 89.7 60.4 49.6-0.1 89.7-27.1 89.7-60.4l0-1.7v-0.1c0-0.9 0.7-1.7 1.6-1.9C385.7 259.5 414 252.6 441.6 239.4" class="a"/><path d="M217.8 114.5c-21.2 0-29.4 15.4-30.8 35.6 -0.2 2.2-0.2 4.5-0.2 6.8 0 6.4 0.6 12.4 1.8 17.8h17.9c-1-5-1.1-11.1-1.1-17.8 0-2.4 0-4.6 0.1-6.8 0.5-13.2 2.8-23 12.3-23 8.8 0 11.7 9.8 12.3 23 0.1 2.2 0.1 4.5 0.1 6.8 0 6.7-0.4 12.8-1.5 17.8 -1.6 7.3-4.9 12.1-11 12.1 -6.8 0-9.9-4.7-11.3-12.1l-17.9 0c3.4 14.5 12 24.5 29.2 24.5 17 0 25.7-10 29.2-24.5 0 0 0 0 0 0 1.3-5.4 1.9-11.4 1.9-17.8 0-2.3-0.1-4.6-0.3-6.8C247.2 129.9 238.9 114.5 217.8 114.5zM345.9 116.4v33.7 24.6 22.4h16v-18.2l3.2-4.2 2.5-3.2 1.7 3.2 11.6 22.4h17.6l-12.2-22.4 -8.4-15.3 6.8-9.3 11.2-15.3h-17.6l-10.7 15.3 -5.6 8v-8 -33.7H345.9zM75.5 116.8v33.3 24.6 22.4h27.8c17.4 0 25.5-7.1 28.5-22.4h-18.7c-1.9 6.1-5.6 8.5-12.7 8.5h-7.7v-8.5 -24.6 -20.3h7.3c11.6 0 14.2 6.9 14.7 20.3h18.4c-0.8-20.4-6.3-33.3-28.8-33.3H75.5zM133.2 150.1l-18.4 0c0.1 1.8 0.1 3.7 0.1 5.7 0 8.5-0.4 14.6-1.7 18.8l18.7 0c1-5.3 1.5-11.5 1.5-18.8C133.3 153.9 133.3 152 133.2 150.1zM316 121.8v12.3h-8.1v10.9h8.1v5.1 24.6 5.9c0 12.6 2.3 16.5 14.8 16.5 3.7 0 6.9-0.4 10.4-0.7V185.3c-1.1 0.1-2.3 0.2-3.6 0.2 -4.6 0-5.7-2-5.7-6.8v-4 -24.6 -5.1h9.3v-10.9h-9.3v-12.3H316zM280.1 131.3c-4.1 0-7.8 0.8-11.2 2.4 -3.3 1.6-6.2 3.9-8.6 6.9 -2.1 2.6-3.8 5.8-5 9.5 -0.2 0.5-0.3 1.1-0.5 1.6 -1.3 4.3-1.9 9-1.9 14.2 0 3.1 0.2 6 0.7 8.8 0.6 3.3 1.4 6.2 2.6 8.9 2.2 5 5.4 8.8 9.6 11.6 4.2 2.7 9.1 4.1 14.8 4.1 4.9 0 9.2-0.9 13-2.8 3.8-1.9 6.8-4.5 9.1-7.9 2.4-3.4 3.8-7.3 4.2-11.7h-16.8c-0.7 2.8-1.9 5-3.7 6.6 -1.8 1.6-3.8 2.4-6.2 2.4 -3.2 0-5.8-1.4-7.8-4.1 -1.4-1.9-2.3-4.2-2.8-7 -0.2-1.2-0.3-2.5-0.3-3.8v-0.7h38.1v-2.6c0-6-0.6-11.2-1.7-15.5 -0.2-0.7-0.4-1.3-0.6-2 0 0 0 0 0 0 -1.1-3.5-2.8-6.6-4.8-9.4 -1.5-2-3.3-3.7-5.5-5.1 -2.1-1.4-4.5-2.5-7-3.2C285.4 131.7 282.8 131.3 280.1 131.3zM422.1 131.3c-4.1 0-7.9 0.8-11.2 2.4 -3.3 1.6-6.1 3.9-8.6 6.9 -2.1 2.6-3.8 5.8-5 9.5 -0.2 0.5-0.3 1.1-0.5 1.6 -1.3 4.3-1.9 9-1.9 14.2 0 3.1 0.2 6 0.7 8.8 0.5 3.3 1.4 6.2 2.6 8.9 2.2 5 5.4 8.8 9.5 11.6 4.2 2.7 9.2 4.1 14.8 4.1 4.9 0 9.2-0.9 13-2.8 3.8-1.9 6.9-4.5 9.2-7.9 2.4-3.4 3.7-7.3 4.1-11.7h-16.7c-0.7 2.8-1.9 5-3.7 6.6 -1.8 1.6-3.9 2.4-6.2 2.4 -3.2 0-5.8-1.4-7.8-4.1 -1.4-1.9-2.4-4.2-2.8-7 -0.2-1.2-0.3-2.5-0.3-3.8v-0.7h38.1v-2.6c0-6-0.6-11.2-1.7-15.5 -0.2-0.7-0.4-1.3-0.6-2 0 0 0 0 0 0 -1.1-3.5-2.8-6.6-4.9-9.4 -1.5-2-3.3-3.7-5.5-5.1 -2.1-1.4-4.5-2.5-7-3.2C427.4 131.7 424.8 131.3 422.1 131.3zM169.9 133.2c-6.6 0-11.1 3.9-14.3 9.9h-0.3v-8.3h-15.3v15.3l21.1 0c2-1.1 4.4-1.6 6.7-1.6 1.6 0 3.3 0.1 5 0.2v-15.3C171.9 133.3 170.8 133.2 169.9 133.2zM140 150.1v24.6 22.4h16v-22.4 -15c0-4.9 2.2-8 5.2-9.6H140zM484.9 133.2c-6.6 0-11.1 3.9-14.3 9.9h-0.3v-8.3H455v15.3l21.1 0c2-1.1 4.4-1.6 6.7-1.6 1.6 0 3.3 0.1 5 0.2v-15.3C486.8 133.3 485.8 133.2 484.9 133.2zM455 150.1v24.6 22.4h16v-22.4 -15c0-4.9 2.2-8 5.1-9.6H455zM280.3 144.2c2.9 0 5.2 1.1 6.8 3.3 0.6 0.7 1.1 1.6 1.5 2.6 0.9 2 1.5 4.4 1.9 7.4H269.5c0.3-2.9 1-5.4 2-7.4 0.4-0.9 1-1.7 1.6-2.5C274.9 145.3 277.4 144.2 280.3 144.2zM422.3 144.2c2.9 0 5.2 1.1 6.8 3.3 0.6 0.7 1.1 1.6 1.5 2.6 0.9 2 1.5 4.4 1.9 7.4h-21c0.3-2.9 0.9-5.4 1.9-7.4 0.4-0.9 1-1.7 1.6-2.5C417 145.3 419.4 144.2 422.3 144.2zM161.4 183.4v13.7h13.7V183.4H161.4z" fill="#25338B"/><path d="M273.7 218.9c-1.4 0.1-3 0.4-4 0.2 -0.9-0.1-1.9 0-2.8-0.2 -0.7-0.1-1.4-0.1-2.1 0.1 -1.1 0.1-2 0.5-2.8 1 -0.8 0.6-3 3.5-3.5 3.9 -0.4 0.4-1.9 1.6-2.6 2.3 -0.8 0.8-1.5 2.5-1.7 3.4 -0.1 0.9-0.1 2.7 0 3.2 0.1 0.4 0 1.1-0.1 1.6 -0.1 0.5-0.5 2.2-0.6 2.4 -0.2 0.2-0.3 1.4-0.3 3.1 0 1.7 0.1 2.7-0.1 3.8 -0.2 1.1-0.3 2.3-2.4 4.6 -2.1 2.3-2 2.7-2.2 3.2 -0.2 0.5-0.3 0.9 0.2 1.7 0.6 0.8 0.9 0.8 1.4 1.2 0.4 0.4 2 0.7 1.5 2.5 -0.6 1.9 0.5 2 0.5 2.7 0 0.7-0.2 0.9-0.1 1.5 0.1 0.6 0.6 1.4 0.6 1.9 0 0.9 0.1 1.5-0.2 3.8 0 0-0.3 2.8 3.6 3.8 3.9 1 6.6 2.2 7.5 3.6 0.9 1.4 1 3.3 0.5 5 -0.5 1.7-1.6 3.5-4.3 5.3 -2.8 2-7.6 3.6-13.4 6.8 -5.8 3.2-6.8 4.8-7.7 6 -0.7 0.9-1.7 2.8-1.9 4 -0.1 1-0.4 2.6 1.4 3.4 2 0.9 3.3 0.6 3.3 0.6h69.4c0 0 2.9 0.4 4.4-1.4 1.5-1.9 0.2-5.5-0.1-6.3 -0.4-1-1.9-2.8-3.4-4 -1.6-1.4-6.8-4.6-9.6-6.1 -2.3-1.2-9.9-5.5-12.9-9.1 -2.7-3.2-3.8-7.1-3-9.3 0.9-2.2 2.6-2.4 3.8-2.3 1 0.1 3.6 0.7 4.6 0.5 1.2-0.3 2.3-0.7 3.4-2.6 1.1-1.9 4.2-2.5 4.9-3 0.7-0.4 4.1-2.6 4.3-5.9 0.3-4.4-1.4-4.4-2-9 -0.5-4.6-1.4-5.3-3.1-7.3 -1.4-1.6-2.5-5.2-3.1-6.6 -1.1-2.7-3.5-4.2-4.6-4.5 -1.1-0.3-4.3-1.8-5.7-3.4 -1.2-1.3-3.2-3.3-5-3.7 -1.7-0.4-4.8-0.5-5.8-1 -1.1-0.6-2.9-1.2-3.2-1.1C274.5 219.1 275.1 218.9 273.7 218.9M191.5 266.6c0-30.3 37.4-54.8 83.6-54.8 46.2 0 83.6 24.6 83.6 54.8 0 30.3-37.4 54.8-83.6 54.8C228.9 321.4 191.5 296.9 191.5 266.6z" class="b"/></svg>
